<?xml version="1.0" standalone="no"?>
<!DOCTYPE svg PUBLIC "-//W3C//DTD SVG 20010904//EN"
 "http://www.w3.org/TR/2001/REC-SVG-20010904/DTD/svg10.dtd">
<svg version="1.0" xmlns="http://www.w3.org/2000/svg"
 width="320.000000pt" height="320.000000pt" viewBox="0 0 320.000000 320.000000"
 preserveAspectRatio="xMidYMid meet">
<metadata>
Created by potrace 1.16, written by Peter Selinger 2001-2019
</metadata>
<g transform="translate(0.000000,320.000000) scale(0.100000,-0.100000)"
fill="#000000" stroke="none">
<path d="M1930 2659 c-19 -4 -49 -6 -66 -3 -19 4 -35 1 -39 -6 -5 -7 2 -9 22
-4 15 3 -1 -8 -36 -25 -35 -17 -76 -41 -93 -52 -16 -12 -31 -19 -34 -16 -3 2
11 15 30 27 44 27 48 38 5 13 -32 -19 -78 -64 -49 -48 8 4 -7 -15 -34 -43 -27
-28 -53 -49 -56 -47 -4 3 -16 -5 -26 -18 -16 -18 -16 -19 -1 -8 9 7 17 9 17 3
0 -11 -31 -39 -37 -34 -3 2 -8 0 -11 -4 -4 -4 -1 -4 7 1 16 9 16 12 -25 -75
-43 -89 -58 -157 -58 -275 l-1 -100 155 0 155 0 6 100 c3 61 12 115 23 138 19
42 82 117 100 117 6 0 -2 -12 -19 -26 l-30 -26 33 22 c18 12 30 26 26 31 -3 5
16 19 43 31 67 30 169 30 239 -1 151 -66 219 -246 150 -396 -14 -31 -29 -54
-33 -52 -5 3 -28 -13 -53 -34 -25 -21 -42 -39 -38 -39 5 0 26 16 48 36 22 20
40 32 40 26 0 -6 -21 -27 -47 -47 -84 -64 -90 -65 -652 -65 -601 0 -577 3
-785 -98 -5 -3 -5 2 -1 9 5 8 4 11 -1 6 -5 -5 -9 -14 -9 -20 0 -5 -6 -12 -14
-15 -9 -3 -11 0 -6 9 5 8 -1 5 -13 -5 -26 -23 -29 -34 -4 -15 9 7 -10 -15 -43
-49 -82 -85 -88 -80 -11 8 21 23 23 28 7 15 -29 -25 -91 -102 -72 -91 9 6 12
5 9 -5 -3 -8 -10 -14 -15 -14 -6 0 -15 -4 -20 -9 -5 -5 -2 -6 6 -1 7 4 12 4 9
-1 -2 -5 -18 -39 -36 -75 -108 -221 -69 -490 99 -673 121 -131 259 -193 458
-204 l116 -7 -90 -6 -90 -6 90 1 c50 1 89 4 88 9 -2 4 -3 78 -3 166 l0 159
-92 1 c-104 2 -166 23 -229 79 -124 109 -121 329 7 441 71 62 113 73 316 78
l178 5 2 -458 3 -459 155 0 155 0 3 458 2 457 198 0 c140 0 213 4 252 15 65
17 192 79 216 106 22 24 41 25 23 2 -7 -10 15 9 49 42 57 55 82 84 47 55 -8
-7 -15 -8 -15 -2 0 11 31 39 37 34 3 -2 8 0 11 4 4 4 1 4 -7 -1 -9 -5 -12 -3
-9 6 3 8 10 14 16 14 5 0 14 4 19 9 5 5 3 6 -4 2 -18 -10 -17 -6 18 64 78 158
76 368 -5 529 -30 57 -33 74 -10 45 14 -18 15 -18 4 4 -7 13 -14 21 -17 18 -8
-7 -33 13 -33 26 0 6 8 4 18 -3 15 -13 16 -12 3 4 -8 9 -16 15 -19 12 -7 -7
-42 25 -42 38 0 6 10 2 23 -9 12 -10 0 5 -28 34 -46 49 -73 71 -45 37 7 -8 9
-15 5 -15 -9 0 -70 51 -70 59 0 13 -17 31 -28 31 -6 0 -2 -7 9 -15 25 -19 11
-19 -26 0 -32 17 -41 31 -13 21 10 -4 14 -3 9 1 -4 4 -20 9 -34 10 -15 1 -58
11 -97 22 -75 21 -219 27 -285 10z"/>
</g>
</svg>
